<mxfile host="app.diagrams.net" modified="2023-08-23T04:23:48.283Z" agent="Mozilla/5.0 (Windows NT 10.0; Win64; x64) AppleWebKit/537.36 (KHTML, like Gecko) Chrome/115.0.0.0 Safari/537.36" etag="2xO_V-oOf8l4belvSKEH" version="21.6.9" type="github">
  <diagram name="Page-1" id="c37626ed-c26b-45fb-9056-f9ebc6bb27b6">
    <mxGraphModel dx="2462" dy="940" grid="1" gridSize="10" guides="1" tooltips="1" connect="1" arrows="1" fold="1" page="1" pageScale="1" pageWidth="1100" pageHeight="850" background="none" math="0" shadow="0">
      <root>
        <mxCell id="0" />
        <mxCell id="1" parent="0" />
        <mxCell id="1c7a67bf8fd3230f-14" value="" style="ellipse;shape=cloud;whiteSpace=wrap;html=1;rounded=0;shadow=0;comic=0;strokeWidth=1;fontFamily=Verdana;fontSize=12;movable=1;resizable=1;rotatable=1;deletable=1;editable=1;locked=0;connectable=1;" parent="1" vertex="1">
          <mxGeometry x="831.5" y="10" width="812" height="570" as="geometry" />
        </mxCell>
        <mxCell id="5kExlV9ypFH8rMDm1Jqy-5" value="阿里云" style="text;strokeColor=none;fillColor=none;html=1;fontSize=24;fontStyle=1;verticalAlign=middle;align=center;" vertex="1" parent="1">
          <mxGeometry x="1064" y="124" width="100" height="40" as="geometry" />
        </mxCell>
        <mxCell id="5kExlV9ypFH8rMDm1Jqy-7" value="&lt;div style=&quot;&quot;&gt;&lt;span style=&quot;background-color: initial;&quot;&gt;&lt;b&gt;NAS文件存储&lt;/b&gt;&lt;/span&gt;&lt;/div&gt;&lt;div style=&quot;&quot;&gt;存储服务器数据&lt;/div&gt;&lt;div style=&quot;&quot;&gt;&lt;/div&gt;" style="rounded=1;whiteSpace=wrap;html=1;align=right;spacing=8;" vertex="1" parent="1">
          <mxGeometry x="1378" y="262.5" width="150" height="91" as="geometry" />
        </mxCell>
        <mxCell id="5kExlV9ypFH8rMDm1Jqy-22" style="edgeStyle=orthogonalEdgeStyle;rounded=0;orthogonalLoop=1;jettySize=auto;html=1;exitX=0.5;exitY=0;exitDx=0;exitDy=0;" edge="1" parent="1" source="5kExlV9ypFH8rMDm1Jqy-21" target="5kExlV9ypFH8rMDm1Jqy-10">
          <mxGeometry relative="1" as="geometry" />
        </mxCell>
        <mxCell id="5kExlV9ypFH8rMDm1Jqy-23" value="&lt;font style=&quot;font-size: 16px;&quot;&gt;互联网访问&lt;/font&gt;" style="edgeLabel;html=1;align=center;verticalAlign=middle;resizable=0;points=[];" vertex="1" connectable="0" parent="5kExlV9ypFH8rMDm1Jqy-22">
          <mxGeometry x="-0.0902" y="-2" relative="1" as="geometry">
            <mxPoint as="offset" />
          </mxGeometry>
        </mxCell>
        <mxCell id="5kExlV9ypFH8rMDm1Jqy-10" value="&lt;div style=&quot;&quot;&gt;&lt;b&gt;虚拟交换机&lt;/b&gt;&lt;/div&gt;&lt;div style=&quot;&quot;&gt;&lt;b&gt;和弹性IP&lt;/b&gt;&lt;/div&gt;&lt;div style=&quot;&quot;&gt;&lt;/div&gt;" style="rounded=1;whiteSpace=wrap;html=1;align=right;spacing=8;" vertex="1" parent="1">
          <mxGeometry x="1064" y="460" width="150" height="91" as="geometry" />
        </mxCell>
        <mxCell id="5kExlV9ypFH8rMDm1Jqy-15" style="edgeStyle=orthogonalEdgeStyle;rounded=0;orthogonalLoop=1;jettySize=auto;html=1;exitX=0;exitY=0.535;exitDx=0;exitDy=0;exitPerimeter=0;entryX=1;entryY=0.75;entryDx=0;entryDy=0;" edge="1" parent="1" source="5kExlV9ypFH8rMDm1Jqy-2" target="5kExlV9ypFH8rMDm1Jqy-14">
          <mxGeometry relative="1" as="geometry" />
        </mxCell>
        <mxCell id="5kExlV9ypFH8rMDm1Jqy-16" value="挂载服务文件" style="edgeLabel;html=1;align=center;verticalAlign=middle;resizable=0;points=[];fontSize=16;" vertex="1" connectable="0" parent="5kExlV9ypFH8rMDm1Jqy-15">
          <mxGeometry x="-0.2116" y="-1" relative="1" as="geometry">
            <mxPoint as="offset" />
          </mxGeometry>
        </mxCell>
        <mxCell id="5kExlV9ypFH8rMDm1Jqy-2" value="" style="shape=mxgraph.cisco.storage.file_cabinet;sketch=0;html=1;pointerEvents=1;dashed=0;fillColor=#036897;strokeColor=#ffffff;strokeWidth=2;verticalLabelPosition=bottom;verticalAlign=top;align=center;outlineConnect=0;" vertex="1" parent="1">
          <mxGeometry x="1360" y="277" width="51" height="62" as="geometry" />
        </mxCell>
        <mxCell id="5kExlV9ypFH8rMDm1Jqy-3" value="" style="shape=mxgraph.cisco.switches.workgroup_switch;sketch=0;html=1;pointerEvents=1;dashed=0;fillColor=#036897;strokeColor=#ffffff;strokeWidth=2;verticalLabelPosition=bottom;verticalAlign=top;align=center;outlineConnect=0;" vertex="1" parent="1">
          <mxGeometry x="1039.5" y="480.5" width="101" height="50" as="geometry" />
        </mxCell>
        <mxCell id="5kExlV9ypFH8rMDm1Jqy-13" value="&lt;div style=&quot;&quot;&gt;&lt;b&gt;容器镜像ARK存储&lt;/b&gt;&lt;/div&gt;&lt;div style=&quot;&quot;&gt;存储JAVA运行&lt;span style=&quot;background-color: initial;&quot;&gt;环境&lt;/span&gt;&lt;/div&gt;&lt;div style=&quot;&quot;&gt;&lt;span style=&quot;background-color: initial;&quot;&gt;等服务&lt;/span&gt;&lt;/div&gt;&lt;div style=&quot;&quot;&gt;&lt;/div&gt;" style="rounded=1;whiteSpace=wrap;html=1;align=right;spacing=8;" vertex="1" parent="1">
          <mxGeometry x="1378" y="140" width="150" height="91" as="geometry" />
        </mxCell>
        <mxCell id="5kExlV9ypFH8rMDm1Jqy-17" style="edgeStyle=orthogonalEdgeStyle;rounded=0;orthogonalLoop=1;jettySize=auto;html=1;exitX=0;exitY=0.5;exitDx=0;exitDy=0;exitPerimeter=0;entryX=1;entryY=0.25;entryDx=0;entryDy=0;" edge="1" parent="1" source="5kExlV9ypFH8rMDm1Jqy-8" target="5kExlV9ypFH8rMDm1Jqy-14">
          <mxGeometry relative="1" as="geometry" />
        </mxCell>
        <mxCell id="5kExlV9ypFH8rMDm1Jqy-18" value="&lt;font style=&quot;font-size: 16px;&quot;&gt;拉取镜像&lt;/font&gt;" style="edgeLabel;html=1;align=center;verticalAlign=middle;resizable=0;points=[];" vertex="1" connectable="0" parent="5kExlV9ypFH8rMDm1Jqy-17">
          <mxGeometry x="-0.0295" y="-1" relative="1" as="geometry">
            <mxPoint as="offset" />
          </mxGeometry>
        </mxCell>
        <mxCell id="5kExlV9ypFH8rMDm1Jqy-8" value="" style="shape=mxgraph.cisco.storage.relational_database;sketch=0;html=1;pointerEvents=1;dashed=0;fillColor=#036897;strokeColor=#ffffff;strokeWidth=2;verticalLabelPosition=bottom;verticalAlign=top;align=center;outlineConnect=0;" vertex="1" parent="1">
          <mxGeometry x="1353.5" y="164" width="57.5" height="43" as="geometry" />
        </mxCell>
        <mxCell id="5kExlV9ypFH8rMDm1Jqy-19" style="edgeStyle=orthogonalEdgeStyle;rounded=0;orthogonalLoop=1;jettySize=auto;html=1;exitX=0.5;exitY=1;exitDx=0;exitDy=0;entryX=0.5;entryY=0;entryDx=0;entryDy=0;" edge="1" parent="1" source="5kExlV9ypFH8rMDm1Jqy-14" target="5kExlV9ypFH8rMDm1Jqy-10">
          <mxGeometry relative="1" as="geometry" />
        </mxCell>
        <mxCell id="5kExlV9ypFH8rMDm1Jqy-20" value="&lt;font style=&quot;font-size: 16px;&quot;&gt;VPC虚拟云上内网&lt;/font&gt;" style="edgeLabel;html=1;align=center;verticalAlign=middle;resizable=0;points=[];fontSize=19;" vertex="1" connectable="0" parent="5kExlV9ypFH8rMDm1Jqy-19">
          <mxGeometry x="-0.0049" relative="1" as="geometry">
            <mxPoint as="offset" />
          </mxGeometry>
        </mxCell>
        <mxCell id="5kExlV9ypFH8rMDm1Jqy-14" value="&lt;div style=&quot;text-align: left;&quot;&gt;&lt;b&gt;ECI容器服务&lt;/b&gt;&lt;/div&gt;&lt;div style=&quot;&quot;&gt;&lt;ul&gt;&lt;li style=&quot;text-align: left;&quot;&gt;可灵活拉取镜像开机&lt;/li&gt;&lt;li style=&quot;text-align: left;&quot;&gt;可自定义vCPU数和内存大小&lt;/li&gt;&lt;/ul&gt;&lt;/div&gt;&lt;div style=&quot;&quot;&gt;&lt;/div&gt;" style="rounded=1;whiteSpace=wrap;html=1;align=right;spacing=8;" vertex="1" parent="1">
          <mxGeometry x="1006.5" y="200" width="215" height="91" as="geometry" />
        </mxCell>
        <mxCell id="5kExlV9ypFH8rMDm1Jqy-9" value="" style="shape=mxgraph.cisco.storage.fc_storage;sketch=0;html=1;pointerEvents=1;dashed=0;fillColor=#036897;strokeColor=#ffffff;strokeWidth=2;verticalLabelPosition=bottom;verticalAlign=top;align=center;outlineConnect=0;" vertex="1" parent="1">
          <mxGeometry x="960" y="230" width="77" height="43" as="geometry" />
        </mxCell>
        <mxCell id="5kExlV9ypFH8rMDm1Jqy-21" value="&lt;div style=&quot;&quot;&gt;&lt;b&gt;客户端PC&lt;/b&gt;&lt;/div&gt;&lt;div style=&quot;&quot;&gt;&lt;/div&gt;" style="rounded=1;whiteSpace=wrap;html=1;align=right;spacing=8;" vertex="1" parent="1">
          <mxGeometry x="1162.5" y="659.5" width="127.5" height="91" as="geometry" />
        </mxCell>
        <mxCell id="5kExlV9ypFH8rMDm1Jqy-4" value="" style="shape=mxgraph.cisco.computers_and_peripherals.pc;sketch=0;html=1;pointerEvents=1;dashed=0;fillColor=#036897;strokeColor=#ffffff;strokeWidth=2;verticalLabelPosition=bottom;verticalAlign=top;align=center;outlineConnect=0;" vertex="1" parent="1">
          <mxGeometry x="1136" y="670" width="78" height="70" as="geometry" />
        </mxCell>
      </root>
    </mxGraphModel>
  </diagram>
</mxfile>
